<svg width="176" height="40" viewBox="0 0 176 40" fill="none" xmlns="http://www.w3.org/2000/svg">
<path d="M44.2734 28.0007H55.1773V24.7164H48.1489V12.3455H44.2734V28.0007Z" fill="white"/>
<path d="M61.6373 25.8112C60.0828 25.8112 59.2726 24.4537 59.2726 22.4174C59.2726 20.3811 60.0828 19.0017 61.6373 19.0017C63.1919 19.0017 64.0239 20.3811 64.0239 22.4174C64.0239 24.4537 63.1919 25.8112 61.6373 25.8112ZM61.6592 28.351C65.272 28.351 67.6367 25.7893 67.6367 22.4174C67.6367 19.0455 65.272 16.4838 61.6592 16.4838C58.0684 16.4838 55.6599 19.0455 55.6599 22.4174C55.6599 25.7893 58.0684 28.351 61.6592 28.351Z" fill="white"/>
<path d="M73.8902 31.8762C75.5543 31.8762 77.0213 31.5039 78.0065 30.6281C78.9043 29.818 79.4954 28.5919 79.4954 26.9059V16.7903H76.0798V17.9945H76.036C75.3791 17.053 74.3719 16.4619 72.883 16.4619C70.1023 16.4619 68.1755 18.7828 68.1755 22.0671C68.1755 25.5046 70.5183 27.3876 73.0363 27.3876C74.3938 27.3876 75.2477 26.8402 75.9046 26.0958H75.9922V27.2125C75.9922 28.57 75.3572 29.3582 73.8464 29.3582C72.6641 29.3582 72.0729 28.8546 71.8758 28.2634H68.4164C68.7667 30.6062 70.803 31.8762 73.8902 31.8762ZM73.8683 24.7383C72.5327 24.7383 71.6569 23.6435 71.6569 21.9576C71.6569 20.2497 72.5327 19.155 73.8683 19.155C75.3572 19.155 76.1454 20.4249 76.1454 21.9357C76.1454 23.5122 75.4229 24.7383 73.8683 24.7383Z" fill="white"/>
<path d="M86.5187 25.8112C84.9641 25.8112 84.154 24.4537 84.154 22.4174C84.154 20.3811 84.9641 19.0017 86.5187 19.0017C88.0733 19.0017 88.9053 20.3811 88.9053 22.4174C88.9053 24.4537 88.0733 25.8112 86.5187 25.8112ZM86.5406 28.351C90.1533 28.351 92.5183 25.7893 92.5183 22.4174C92.5183 19.0455 90.1533 16.4838 86.5406 16.4838C82.9498 16.4838 80.5413 19.0455 80.5413 22.4174C80.5413 25.7893 82.9498 28.351 86.5406 28.351Z" fill="white"/>
<path d="M93.5601 28.0007H97.129V16.7903H93.5601V28.0007ZM93.5601 15.2357H97.129V12.3455H93.5601V15.2357Z" fill="white"/>
<path d="M98.6772 31.701H102.246V26.8402H102.29C102.991 27.7817 104.02 28.351 105.465 28.351C108.399 28.351 110.347 26.0301 110.347 22.3955C110.347 19.0236 108.53 16.4619 105.552 16.4619C104.02 16.4619 102.925 17.1406 102.159 18.1478H102.093V16.7903H98.6772V31.701ZM104.545 25.5922C103.013 25.5922 102.137 24.3442 102.137 22.5269C102.137 20.7095 102.925 19.3301 104.48 19.3301C106.012 19.3301 106.735 20.6001 106.735 22.5269C106.735 24.4318 105.903 25.5922 104.545 25.5922Z" fill="white"/>
<path d="M116.159 28.351C119.093 28.351 121.26 27.0811 121.26 24.6288C121.26 21.7605 118.939 21.2569 116.969 20.9285C115.546 20.6658 114.276 20.5563 114.276 19.768C114.276 19.0674 114.954 18.739 115.83 18.739C116.816 18.739 117.494 19.0455 117.626 20.0527H120.91C120.735 17.8413 119.027 16.4619 115.852 16.4619C113.203 16.4619 111.013 17.688 111.013 20.0527C111.013 22.6801 113.093 23.2056 115.042 23.534C116.531 23.7968 117.888 23.9063 117.888 24.9135C117.888 25.636 117.21 26.0301 116.137 26.0301C114.954 26.0301 114.21 25.4827 114.079 24.3661H110.707C110.816 26.8402 112.874 28.351 116.159 28.351Z" fill="white"/>
<path d="M126.107 28.3291C127.662 28.3291 128.647 27.7161 129.457 26.6213H129.523V28.0007H132.939V16.7903H129.37V23.0523C129.37 24.388 128.625 25.3076 127.399 25.3076C126.261 25.3076 125.713 24.6288 125.713 23.4027V16.7903H122.166V24.1471C122.166 26.6432 123.524 28.3291 126.107 28.3291Z" fill="white"/>
<path d="M134.492 28.0007H138.061V21.7167C138.061 20.3811 138.718 19.4396 139.834 19.4396C140.907 19.4396 141.411 20.1403 141.411 21.3445V28.0007H144.98V21.7167C144.98 20.3811 145.615 19.4396 146.753 19.4396C147.826 19.4396 148.33 20.1403 148.33 21.3445V28.0007H151.898V20.7095C151.898 18.1916 150.629 16.4619 148.089 16.4619C146.644 16.4619 145.439 17.0749 144.564 18.4324H144.52C143.95 17.2282 142.834 16.4619 141.367 16.4619C139.747 16.4619 138.674 17.2282 137.973 18.3886H137.907V16.7903H134.492V28.0007Z" fill="white"/>
<path fill-rule="evenodd" clip-rule="evenodd" d="M7.8027 5.28235C6.4975 6.19499 5.31725 7.27402 4.29269 8.48868C8.47953 8.09997 13.7988 8.73468 19.9743 11.8225C26.569 15.1198 31.8794 15.2312 35.5751 14.5184C35.2398 13.5031 34.8176 12.5273 34.3175 11.5996C30.0869 12.0458 24.6632 11.4552 18.3424 8.29489C14.3286 6.288 10.7905 5.46129 7.8027 5.28235ZM31.8462 8.08202C28.5052 4.34918 23.65 2 18.2461 2C16.6591 2 15.1193 2.20263 13.6514 2.5834C15.6395 3.12586 17.7515 3.91948 19.9743 5.03092C24.6021 7.34477 28.5975 8.08978 31.8462 8.08202ZM36.3653 18.0822C31.9005 18.9638 25.735 18.7828 18.3424 15.0865C11.4312 11.6308 5.93038 11.6743 2.22046 12.4988C2.02897 12.5413 1.84198 12.586 1.65951 12.6325C1.17379 13.6889 0.786074 14.7997 0.507882 15.9532C0.805006 15.8739 1.11204 15.7984 1.42882 15.728C5.92959 14.7278 12.2888 14.7713 19.9743 18.6141C26.8857 22.0697 32.3864 22.0262 36.0964 21.2017C36.2235 21.1735 36.3488 21.1443 36.4719 21.1142C36.4854 20.8266 36.4922 20.5371 36.4922 20.2461C36.4922 19.514 36.4491 18.7919 36.3653 18.0822ZM35.8762 24.9648C31.4547 25.7378 25.4688 25.4411 18.3424 21.878C11.4312 18.4224 5.93038 18.4659 2.22046 19.2904C1.39697 19.4733 0.656166 19.6962 0.00267306 19.9314C0.000891323 20.0361 0 20.141 0 20.2461C0 30.3231 8.16905 38.4922 18.2461 38.4922C26.6914 38.4922 33.7966 32.7546 35.8762 24.9648Z" fill="white"/>
</svg>
